<svg id="logo" xmlns="http://www.w3.org/2000/svg" viewBox="0 0 413 409"><defs><style>.cls-1{fill:#1e1e1e;}.cls-2{fill:#fcee21;stroke:#000;stroke-miterlimit:10;stroke-width:5px;}</style></defs><circle class="cls-1" cx="206.5" cy="205.5" r="195"/><path d="M206.5,13a192.55,192.55,0,0,1,74.93,369.87A192.55,192.55,0,0,1,131.57,28.13,191.24,191.24,0,0,1,206.5,13m0-5C97.42,8,9,96.42,9,205.5S97.42,403,206.5,403,404,314.58,404,205.5,315.58,8,206.5,8Z"/><path class="cls-2" d="M198.82,274.78h27.59q30.76,0,30.76,21.73,0,14.89-10.86,23.19t-30.4,8.3H177.09q-21.48,0-33.81-8.79T131,295.29q0-8.07,5.13-20.51l40.28-99.12,2.68-6.84q11.24-27.58,36.14-27.59a25.3,25.3,0,0,1,17.7,6.84,21.46,21.46,0,0,1,7.44,16.36q0,7.81-6.59,23.92ZM231.05,63.35A33.77,33.77,0,0,1,265,97.29a34,34,0,0,1-58,24,32.72,32.72,0,0,1-9.89-24,33.77,33.77,0,0,1,33.94-33.94Z"/></svg>