<svg xmlns="http://www.w3.org/2000/svg" viewBox="0 0 1390 435"><defs><style>.cls-1{fill:#333;stroke-width:4px;}.cls-1,.cls-3,.cls-4{stroke:#000;stroke-miterlimit:10;}.cls-2{fill:#1e1e1e;}.cls-3{fill:#fcee21;stroke-width:5px;}.cls-4{fill:#fff;stroke-width:3px;}</style></defs><g id="fond"><rect class="cls-1" x="3.49" y="3.5" width="1382.69" height="428" rx="100.81"/></g><g id="logo"><circle class="cls-2" cx="273.5" cy="217.5" r="195"/><path d="M273.5,25a192.55,192.55,0,0,1,74.93,369.87A192.55,192.55,0,0,1,198.57,40.13,191.24,191.24,0,0,1,273.5,25m0-5C164.42,20,76,108.42,76,217.5S164.42,415,273.5,415,471,326.58,471,217.5,382.58,20,273.5,20Z"/><path class="cls-3" d="M265.82,286.78h27.59q30.76,0,30.76,21.73,0,14.89-10.86,23.19t-30.4,8.3H244.09q-21.48,0-33.81-8.79T198,307.29q0-8.07,5.13-20.51l40.28-99.12,2.68-6.84q11.23-27.58,36.14-27.59a25.3,25.3,0,0,1,17.7,6.84,21.46,21.46,0,0,1,7.44,16.36q0,7.81-6.59,23.92ZM298.05,75.35A33.77,33.77,0,0,1,332,109.29a33.94,33.94,0,1,1-67.87,0,33.77,33.77,0,0,1,33.94-33.94Z"/></g><g id="texte"><path class="cls-4" d="M648.18,293h24.61q26,0,26,18.26,0,12.51-9.23,19.48t-25.43,7H621.31q-12.51,0-21-7.59A24.46,24.46,0,0,1,591.78,311q0-7,5.74-20.92l18.05-44.7q2.86-7,3.08-11.28a10,10,0,0,0-4-8.41,16.29,16.29,0,0,0-10.77-3.49q-21.12,0-34,31.79l-24.2,59.47q-10.87,27.07-32.4,27.07a22.08,22.08,0,0,1-15-5.33,16.68,16.68,0,0,1-6.16-13.13q0-5.73,3.28-13.74l2.26-5.53,41.43-102.13q8-19.89,27.27-19.89,15.79,0,22.56,13.94,21.95-16.82,41.84-16.82,19.28,0,31.78,11.08T675,217.07q0,9.44-4.51,20.72Z"/><path class="cls-4" d="M755.64,277.57q0,15.39,23.17,15.38h60.91q25.85,0,25.84,18.26,0,12.51-9.12,19.48t-25.54,7h-58q-32.42,0-49.33-16t-16.92-46.75q0-39.59,26.77-68.29t63.67-28.72q26.87,0,43.17,14t16.31,37q0,27.69-22.56,41-12.51,7.59-37.33,7.59Zm9.84-37.32H788q21.94,0,21.33-9.64-.61-10.87-14.15-10.87Q776.35,219.74,765.48,240.25Z"/><path class="cls-4" d="M922.57,277.57q0,15.39,23.18,15.38h60.9q25.84,0,25.84,18.26,0,12.51-9.12,19.48t-25.53,7h-58q-32.4,0-49.32-16t-16.92-46.75q0-39.59,26.76-68.29T964,177.9q26.87,0,43.17,14t16.3,37q0,27.69-22.56,41-12.51,7.59-37.32,7.59Zm9.85-37.32H955q21.94,0,21.33-9.64-.62-10.87-14.15-10.87Q943.28,219.74,932.42,240.25Z"/><path class="cls-4" d="M1181.18,293h23.37q26.06,0,26,18.26,0,12.51-9.23,19.48t-25.43,7h-27.68q-16,0-23.38-13.12-13.12,13.13-28.1,13.12h-26q-22.77,0-36.4-15.59t-13.64-41.42q0-39.58,27-71.16t60.6-31.59q24.81,0,39.58,17.85l45.73-112.18q11.68-28.71,32.61-28.71a21.38,21.38,0,0,1,15,5.64,18,18,0,0,1,6.15,13.84,40.63,40.63,0,0,1-3.08,14.36l-2.46,5.53Zm-75.06,1h7.79q14.14,0,18.66-11.28L1148,244.76q2.88-7,2.87-10.66a13.1,13.1,0,0,0-5.22-10.46,19.83,19.83,0,0,0-13-4.31q-16,0-29.84,17.84t-13.84,38.56Q1088.89,294,1106.12,294Z"/></g></svg>