<?xml version="1.0" encoding="UTF-8"?><svg xmlns="http://www.w3.org/2000/svg" viewBox="0 0 1394.18 617.33"><defs><style>.c{fill:#f2a900;stroke-width:5px;}.c,.d{stroke:#000;stroke-miterlimit:10;}.d{fill:#fff;stroke-width:8px;}</style></defs><g id="a"><g><circle cx="279.5" cy="300.24" r="195"/><path d="M279.5,107.74c25.99,0,51.2,5.09,74.93,15.13,22.92,9.7,43.51,23.58,61.19,41.26,17.68,17.68,31.56,38.27,41.26,61.19,10.04,23.73,15.13,48.94,15.13,74.93s-5.09,51.2-15.13,74.93c-9.7,22.92-23.58,43.51-41.26,61.19-17.68,17.68-38.27,31.56-61.19,41.26-23.73,10.04-48.94,15.13-74.93,15.13s-51.2-5.09-74.93-15.13c-22.92-9.7-43.51-23.58-61.19-41.26-17.68-17.68-31.56-38.27-41.26-61.19-10.04-23.73-15.13-48.94-15.13-74.93s5.09-51.2,15.13-74.93c9.7-22.92,23.58-43.51,41.26-61.19,17.68-17.68,38.27-31.56,61.19-41.26,23.73-10.04,48.94-15.13,74.93-15.13m0-5c-109.08,0-197.5,88.42-197.5,197.5s88.42,197.5,197.5,197.5,197.5-88.42,197.5-197.5-88.42-197.5-197.5-197.5h0Z"/></g><path class="c" d="M273.82,367.52h27.59c20.51,0,30.76,7.24,30.76,21.73,0,9.93-3.62,17.66-10.86,23.19-7.24,5.54-17.38,8.3-30.4,8.3h-38.82c-14.32,0-25.6-2.93-33.81-8.79-8.22-5.86-12.33-13.83-12.33-23.93,0-5.37,1.71-12.21,5.13-20.51l40.28-99.12,2.69-6.84c7.48-18.39,19.53-27.59,36.13-27.59,6.84,0,12.73,2.28,17.7,6.84,4.96,4.56,7.45,10.01,7.45,16.36,0,5.21-2.2,13.18-6.59,23.93l-34.91,86.43Zm32.23-211.43c9.44,0,17.46,3.3,24.05,9.89s9.89,14.61,9.89,24.05-3.3,17.46-9.89,24.05-14.61,9.89-24.05,9.89-17.46-3.3-24.05-9.89-9.89-14.61-9.89-24.05,3.3-17.46,9.89-24.05,14.61-9.89,24.05-9.89Z"/><g/></g><g id="b"><g><path class="d" d="M663.41,369.24h28.81c20.32,0,30.49,7.12,30.49,21.37,0,9.76-3.6,17.37-10.8,22.81-7.2,5.44-17.13,8.16-29.77,8.16h-50.18c-9.76,0-17.97-2.96-24.61-8.88-6.64-5.92-9.96-13.36-9.96-22.33,0-5.44,2.24-13.6,6.72-24.49l21.13-52.34c2.24-5.44,3.44-9.84,3.6-13.2,.16-3.84-1.4-7.12-4.68-9.84-3.28-2.72-7.48-4.08-12.6-4.08-16.49,0-29.77,12.41-39.85,37.21l-28.33,69.62c-8.49,21.13-21.13,31.69-37.93,31.69-6.88,0-12.72-2.08-17.53-6.24s-7.2-9.28-7.2-15.37c0-4.48,1.28-9.84,3.84-16.09l2.64-6.48,48.5-119.56c6.24-15.52,16.88-23.29,31.93-23.29,12.32,0,21.13,5.44,26.41,16.33,17.12-13.12,33.45-19.69,48.98-19.69s27.45,4.32,37.21,12.96c9.76,8.64,14.64,19.61,14.64,32.89,0,7.36-1.76,15.45-5.28,24.25l-26.17,64.58Z"/><path class="d" d="M789.21,351.23c0,12,9.04,18.01,27.13,18.01h71.3c20.17,0,30.25,7.12,30.25,21.37,0,9.76-3.56,17.37-10.68,22.81-7.12,5.44-17.09,8.16-29.89,8.16h-67.94c-25.29,0-44.54-6.24-57.74-18.73s-19.81-30.73-19.81-54.74c0-30.89,10.44-57.54,31.33-79.95,20.89-22.41,45.74-33.61,74.54-33.61,20.97,0,37.81,5.48,50.54,16.45,12.72,10.97,19.09,25.41,19.09,43.33,0,21.61-8.8,37.61-26.41,48.02-9.76,5.92-24.33,8.88-43.69,8.88h-48.02Zm11.52-43.69h26.41c17.12,0,25.45-3.76,24.97-11.28-.48-8.48-6-12.72-16.57-12.72-14.73,0-26.33,8-34.81,24.01Z"/><path class="d" d="M984.63,351.23c0,12,9.04,18.01,27.13,18.01h71.3c20.17,0,30.25,7.12,30.25,21.37,0,9.76-3.56,17.37-10.68,22.81-7.12,5.44-17.09,8.16-29.89,8.16h-67.94c-25.29,0-44.54-6.24-57.74-18.73s-19.81-30.73-19.81-54.74c0-30.89,10.44-57.54,31.33-79.95,20.89-22.41,45.74-33.61,74.54-33.61,20.97,0,37.81,5.48,50.54,16.45,12.72,10.97,19.09,25.41,19.09,43.33,0,21.61-8.8,37.61-26.41,48.02-9.76,5.92-24.33,8.88-43.69,8.88h-48.02Zm11.52-43.69h26.41c17.12,0,25.45-3.76,24.97-11.28-.48-8.48-6-12.72-16.57-12.72-14.73,0-26.33,8-34.81,24.01Z"/><path class="d" d="M1287.38,369.24h27.37c20.32,0,30.49,7.12,30.49,21.37,0,9.76-3.6,17.37-10.8,22.81-7.2,5.44-17.13,8.16-29.77,8.16h-32.41c-12.48,0-21.61-5.12-27.37-15.37-10.25,10.25-21.21,15.37-32.89,15.37h-30.49c-17.77,0-31.97-6.08-42.62-18.25-10.65-12.16-15.96-28.33-15.96-48.5,0-30.89,10.52-58.66,31.57-83.31,21.04-24.65,44.69-36.97,70.94-36.97,19.36,0,34.81,6.96,46.33,20.89l53.54-131.32c9.12-22.41,21.85-33.61,38.17-33.61,6.88,0,12.72,2.2,17.53,6.6,4.8,4.4,7.2,9.81,7.2,16.21,0,4.96-1.2,10.56-3.6,16.81l-2.88,6.48-94.35,232.64Zm-87.87,1.2h9.12c11.04,0,18.33-4.4,21.85-13.2l18.01-44.42c2.24-5.44,3.36-9.6,3.36-12.48,0-4.8-2.04-8.88-6.12-12.24-4.08-3.36-9.17-5.04-15.25-5.04-12.48,0-24.13,6.96-34.93,20.89s-16.21,28.97-16.21,45.13c0,14.25,6.72,21.37,20.17,21.37Z"/></g></g></svg>